<svg width="24" height="24" viewBox="0 0 24 24" fill="none" xmlns="http://www.w3.org/2000/svg">
    <path fill-rule="evenodd" clip-rule="evenodd" d="M14.3291 20.0004C14.2621 20.0004 14.1931 19.9974 14.1241 19.9904C13.2441 19.9034 12.5541 19.2824 12.3641 18.4074L9.68112 6.01542L6.91812 12.3974C6.75912 12.7634 6.39812 13.0004 6.00012 13.0004H3.00012C2.44712 13.0004 2.00012 12.5524 2.00012 12.0004C2.00012 11.4474 2.44712 11.0004 3.00012 11.0004H5.34412L7.85012 5.21142C8.20512 4.39542 8.98712 3.92042 9.87612 4.00942C10.7561 4.09642 11.4461 4.71742 11.6361 5.59242L14.3191 17.9844L17.0821 11.6024C17.2411 11.2364 17.6011 11.0004 18.0001 11.0004H21.0001C21.5531 11.0004 22.0001 11.4474 22.0001 12.0004C22.0001 12.5524 21.5531 13.0004 21.0001 13.0004H18.6561L16.1501 18.7884C15.8231 19.5414 15.1221 20.0004 14.3291 20.0004Z" fill="#231F20"/>
    <mask id="mask0_4_2107" style="mask-type:alpha" maskUnits="userSpaceOnUse" x="2" y="3" width="21" height="18">
    <path fill-rule="evenodd" clip-rule="evenodd" d="M14.3291 20.0004C14.2621 20.0004 14.1931 19.9974 14.1241 19.9904C13.2441 19.9034 12.5541 19.2824 12.3641 18.4074L9.68112 6.01542L6.91812 12.3974C6.75912 12.7634 6.39812 13.0004 6.00012 13.0004H3.00012C2.44712 13.0004 2.00012 12.5524 2.00012 12.0004C2.00012 11.4474 2.44712 11.0004 3.00012 11.0004H5.34412L7.85012 5.21142C8.20512 4.39542 8.98712 3.92042 9.87612 4.00942C10.7561 4.09642 11.4461 4.71742 11.6361 5.59242L14.3191 17.9844L17.0821 11.6024C17.2411 11.2364 17.6011 11.0004 18.0001 11.0004H21.0001C21.5531 11.0004 22.0001 11.4474 22.0001 12.0004C22.0001 12.5524 21.5531 13.0004 21.0001 13.0004H18.6561L16.1501 18.7884C15.8231 19.5414 15.1221 20.0004 14.3291 20.0004Z" fill="white"/>
    </mask>
    <g mask="url(#mask0_4_2107)">
       <rect width="24" height="24" fill="#98A6C1"/>
    </g>
</svg>
