<svg width="24" height="24" viewBox="0 0 24 24" fill="#none" xmlns="http://www.w3.org/2000/svg">
<path fill-rule="evenodd" clip-rule="evenodd" d="M14 18.3413C14 19.2403 13.084 20.0003 12 20.0003C10.916 20.0003 9.99997 19.2403 9.99997 18.3413V18.0003H14V18.3413ZM20.521 15.2073L18.72 13.4043V8.93626C18.72 5.45526 16.218 2.49926 12.899 2.05926C10.978 1.80426 9.03797 2.39026 7.58297 3.66626C6.11897 4.94826 5.27997 6.79326 5.27997 8.72726L5.27897 13.4043L3.47897 15.2083C3.00997 15.6773 2.87097 16.3773 3.12497 16.9903C3.37997 17.6033 3.97297 18.0003 4.63697 18.0003H7.99997V18.3413C7.99997 20.3593 9.79397 22.0003 12 22.0003C14.206 22.0003 16 20.3593 16 18.3413V18.0003H19.362C20.026 18.0003 20.619 17.6043 20.873 16.9903C21.128 16.3773 20.989 15.6773 20.521 15.2073Z" fill="#231F20"/>
<mask id="mask0_4_1112" style="mask-type:alpha" maskUnits="userSpaceOnUse" x="2" y="2" width="19" height="21">
<path fill-rule="evenodd" clip-rule="evenodd" d="M14 18.3413C14 19.2403 13.084 20.0003 12 20.0003C10.916 20.0003 9.99997 19.2403 9.99997 18.3413V18.0003H14V18.3413ZM20.521 15.2073L18.72 13.4043V8.93626C18.72 5.45526 16.218 2.49926 12.899 2.05926C10.978 1.80426 9.03797 2.39026 7.58297 3.66626C6.11897 4.94826 5.27997 6.79326 5.27997 8.72726L5.27897 13.4043L3.47897 15.2083C3.00997 15.6773 2.87097 16.3773 3.12497 16.9903C3.37997 17.6033 3.97297 18.0003 4.63697 18.0003H7.99997V18.3413C7.99997 20.3593 9.79397 22.0003 12 22.0003C14.206 22.0003 16 20.3593 16 18.3413V18.0003H19.362C20.026 18.0003 20.619 17.6043 20.873 16.9903C21.128 16.3773 20.989 15.6773 20.521 15.2073Z" fill="white"/>
</mask>
<g mask="url(#mask0_4_1112)">
<rect width="24" height="24" fill="#98A6C1"/>
</g>
</svg>
